<?xml version="1.0" encoding="UTF-8"?>
<svg width="120" height="30" viewBox="0 0 120 30" fill="none" xmlns="http://www.w3.org/2000/svg">
    <path d="M15.5 0H0V30H15.5C23.5 30 30 23.5 30 15C30 6.5 23.5 0 15.5 0ZM15.5 25H5V5H15.5C21.5 5 25 8.5 25 15C25 21.5 21.5 25 15.5 25Z" fill="#E31837"/>
    <path d="M45 5H35V25H40V15H45C50 15 55 12 55 10C55 8 50 5 45 5ZM45 12.5H40V7.5H45C47.5 7.5 50 8.5 50 10C50 11.5 47.5 12.5 45 12.5Z" fill="#E31837"/>
    <path d="M65 5H60V25H65V5Z" fill="#E31837"/>
    <path d="M85 5H75V25H80V15H85C90 15 95 12 95 10C95 8 90 5 85 5ZM85 12.5H80V7.5H85C87.5 7.5 90 8.5 90 10C90 11.5 87.5 12.5 85 12.5Z" fill="#E31837"/>
    <path d="M105 5H100V25H105V5Z" fill="#E31837"/>
    <path d="M115 5H110V25H115V5Z" fill="#E31837"/>
</svg> 